<svg width="77" height="38" viewBox="0 0 77 38" fill="none" xmlns="http://www.w3.org/2000/svg">
<path d="M1.536 10.104V9.24H10.24C12.3307 9.24 13.8987 9.73067 14.944 10.712C15.9893 11.672 16.512 12.9093 16.512 14.424V15.288C16.512 16.3973 16.1813 17.3467 15.52 18.136C14.8587 18.9253 13.9307 19.48 12.736 19.8C14.2293 20.056 15.392 20.6213 16.224 21.496C17.056 22.3707 17.472 23.4693 17.472 24.792V25.656C17.472 27.2133 16.928 28.4933 15.84 29.496C14.7733 30.4987 13.1733 31 11.04 31H1.536V30.168L3.296 29.976C3.63733 29.9333 3.84 29.848 3.904 29.72C3.968 29.592 4 29.1547 4 28.408V11.832C4 11.0853 3.968 10.648 3.904 10.52C3.84 10.392 3.63733 10.3067 3.296 10.264L1.536 10.104ZM10.24 10.264H6.784V19.416H10.24C12.4587 19.416 13.568 18.1253 13.568 15.544V14.232C13.568 11.5867 12.4587 10.264 10.24 10.264ZM11.04 20.44H6.784V29.976H11.04C13.3653 29.976 14.528 28.6 14.528 25.848V24.536C14.528 23.2133 14.2293 22.2 13.632 21.496C13.056 20.792 12.192 20.44 11.04 20.44Z" fill="#C1C1AA"/>
<path d="M63.688 31.32C60.9787 31.32 58.9093 30.4133 57.48 28.6C56.072 26.7867 55.368 24.3547 55.368 21.304V18.904C55.368 16.8987 55.6667 15.1493 56.264 13.656C56.8827 12.1627 57.7893 11 58.984 10.168C60.1787 9.336 61.64 8.92 63.368 8.92C64.968 8.92 66.2907 9.24 67.336 9.88C68.3813 10.4987 69.1387 11.32 69.608 12.344C70.0773 13.3467 70.2267 14.4453 70.056 15.64L67.304 16.312C67.5387 14.264 67.304 12.696 66.6 11.608C65.896 10.4987 64.8187 9.944 63.368 9.944C61.7467 9.944 60.5093 10.52 59.656 11.672C58.824 12.824 58.408 14.7013 58.408 17.304V22.904C58.408 25.528 58.856 27.416 59.752 28.568C60.648 29.72 61.9813 30.296 63.752 30.296C64.456 30.296 65.128 30.1787 65.768 29.944C66.408 29.688 66.952 29.2613 67.4 28.664C67.848 28.0667 68.1253 27.2347 68.232 26.168L70.216 26.68C69.7467 28.3867 68.9147 29.592 67.72 30.296C66.5467 30.9787 65.2027 31.32 63.688 31.32Z" fill="#C1C1AA"/>
<path d="M28.1 28.1667C27.1312 27.1667 26.3724 26.0111 25.8234 24.7C25.2745 23.3889 25 22.0445 25 20.6667C25 19.0445 25.2833 17.5611 25.85 16.2167C26.4167 14.8722 27.2667 13.6334 28.4 12.5C29.1778 11.7222 30.1444 11.0667 31.3 10.5334C32.4556 10 33.8167 9.58335 35.3833 9.28335C36.95 8.98335 38.7222 8.79446 40.7 8.71668C42.6778 8.63891 44.8778 8.6778 47.3 8.83335C47.4778 11.2334 47.5389 13.4278 47.4833 15.4167C47.4278 17.4056 47.25 19.1917 46.95 20.775C46.65 22.3584 46.2278 23.7424 45.6833 24.9271C45.1389 26.1119 44.4667 27.1028 43.6667 27.9C42.5333 29.0334 41.3111 29.8889 40 30.4667C38.6889 31.0445 37.2889 31.3334 35.8 31.3334C34.2667 31.3334 32.8611 31.0722 31.5833 30.55C30.3056 30.0278 29.1444 29.2334 28.1 28.1667ZM31.5333 28.1667C32.0889 28.5445 32.7333 28.8334 33.4667 29.0334C34.2 29.2334 34.9769 29.3334 35.7974 29.3334C36.9769 29.3334 38.1222 29.0889 39.2333 28.6C40.3444 28.1111 41.3556 27.4 42.2667 26.4667C42.8667 25.8667 43.3778 25.0834 43.8 24.1167C44.2222 23.15 44.5667 22.0056 44.8333 20.6834C45.1 19.3611 45.2778 17.8667 45.3667 16.2C45.4556 14.5334 45.4556 12.7 45.3667 10.7C43.2778 10.6556 41.4056 10.6834 39.75 10.7834C38.0944 10.8834 36.6333 11.0667 35.3667 11.3334C34.1 11.6 33.0111 11.9389 32.1 12.35C31.1889 12.7611 30.4444 13.2667 29.8667 13.8667C28.9333 14.8222 28.2222 15.8334 27.7333 16.9C27.2444 17.9667 27 19.0556 27 20.1667C27 21.2334 27.2278 22.35 27.6833 23.5167C28.1389 24.6834 28.7 25.6222 29.3667 26.3334C30.5444 24.1556 31.9556 22.2 33.6 20.4667C35.2444 18.7334 36.9889 17.3667 38.8333 16.3667C36.9 18.0334 35.3333 19.8389 34.1333 21.7834C32.9333 23.7278 32.0667 25.8556 31.5333 28.1667Z" fill="#C1C1AA"/>
</svg>
